<?xml version="1.0" encoding="UTF-8"?>
<!DOCTYPE svg PUBLIC "-//W3C//DTD SVG 1.1//EN" "http://www.w3.org/Graphics/SVG/1.1/DTD/svg11.dtd">
<svg xmlns="http://www.w3.org/2000/svg" version="1.1" width="1080px" height="1080px" style="shape-rendering:geometricPrecision; text-rendering:geometricPrecision; image-rendering:optimizeQuality; fill-rule:evenodd; clip-rule:evenodd" xmlns:xlink="http://www.w3.org/1999/xlink">
<g><path style="opacity:1" fill="#fefefe" d="M -0.5,-0.5 C 359.5,-0.5 719.5,-0.5 1079.5,-0.5C 1079.5,359.5 1079.5,719.5 1079.5,1079.5C 719.5,1079.5 359.5,1079.5 -0.5,1079.5C -0.5,719.5 -0.5,359.5 -0.5,-0.5 Z"/></g>
<g><path style="opacity:1" fill="#c7c8c8" d="M 522.5,14.5 C 532.167,14.5 541.833,14.5 551.5,14.5C 555.107,15.824 559.107,16.4907 563.5,16.5C 572.008,17.2449 580.342,17.2449 588.5,16.5C 589.5,16.5 590.5,16.5 591.5,16.5C 593.562,17.7763 595.896,18.6097 598.5,19C 604.848,20.269 611.181,20.4356 617.5,19.5C 627.265,20.6275 636.932,22.2941 646.5,24.5C 647.058,25.7899 648.058,26.6232 649.5,27C 654.833,28.1667 660.167,29.3333 665.5,30.5C 666.442,30.3918 667.275,30.0585 668,29.5C 671.421,32.4796 675.255,33.4796 679.5,32.5C 684.607,33.4242 689.607,34.7576 694.5,36.5C 694.577,37.7498 695.244,38.5831 696.5,39C 709.484,43.1056 722.317,47.6056 735,52.5C 735.765,52.4301 736.265,52.0967 736.5,51.5C 777.015,66.9181 814.681,87.2514 849.5,112.5C 849.859,114.371 850.859,115.871 852.5,117C 883.9,139.388 912.566,165.055 938.5,194C 939.094,194.464 939.761,194.631 940.5,194.5C 1035.18,303.678 1080.01,431.011 1075,576.5C 1066.89,719.844 1012.05,841.511 910.5,941.5C 909.448,941.351 908.448,941.517 907.5,942C 890.461,959 872.128,974.333 852.5,988C 850.859,989.129 849.859,990.629 849.5,992.5C 806.41,1022.71 760.076,1046.54 710.5,1064C 697.526,1067.35 686.692,1064.19 678,1054.5C 676.275,1051.33 674.942,1047.99 674,1044.5C 674.181,989.168 674.181,933.834 674,878.5C 673.174,849.859 664.674,823.859 648.5,800.5C 647.381,797.112 645.381,794.279 642.5,792C 644.5,791.5 646.5,791 648.5,790.5C 649.713,790.253 650.38,789.586 650.5,788.5C 654.037,790.019 657.37,789.686 660.5,787.5C 662.62,789.009 664.287,788.676 665.5,786.5C 669.674,784.936 674.007,784.269 678.5,784.5C 680.939,783.947 683.273,783.947 685.5,784.5C 687.444,783.199 689.444,782.199 691.5,781.5C 691.833,781.5 692.167,781.5 692.5,781.5C 697.099,781.807 701.766,781.307 706.5,780C 708.788,779.178 711.122,778.511 713.5,778C 714.381,777.292 715.047,776.458 715.5,775.5C 746.445,766.527 774.778,752.527 800.5,733.5C 801.117,733.611 801.617,733.944 802,734.5C 810.97,726.531 819.637,718.197 828,709.5C 830.483,706.861 832.316,703.861 833.5,700.5C 860.546,661.877 876.046,618.877 880,571.5C 883.223,544.158 883.223,516.825 880,489.5C 873.455,447.417 855.955,410.75 827.5,379.5C 839.336,345.792 841.502,311.459 834,276.5C 831.069,262.878 827.236,249.545 822.5,236.5C 811.77,235.004 801.104,235.337 790.5,237.5C 787.848,237.41 785.515,238.076 783.5,239.5C 754.415,247.145 727.081,258.978 701.5,275C 693.336,280.583 685.003,285.916 676.5,291C 669.677,290.795 663.011,289.629 656.5,287.5C 655.63,285.401 654.297,285.068 652.5,286.5C 646.481,282.892 640.147,281.559 633.5,282.5C 617.917,279.941 602.251,277.941 586.5,276.5C 584.189,274.932 581.522,274.098 578.5,274C 551.131,271.808 523.798,272.141 496.5,275C 495.944,275.383 495.611,275.883 495.5,276.5C 488.474,276.92 481.474,277.587 474.5,278.5C 469.448,277.628 464.282,277.961 459,279.5C 457.624,279.684 456.791,280.351 456.5,281.5C 441.664,283.834 426.997,287.001 412.5,291C 410.167,291.667 407.833,291.667 405.5,291C 390.856,281.176 375.856,272.01 360.5,263.5C 360.586,262.504 360.252,261.671 359.5,261C 354.5,258.5 349.5,256 344.5,253.5C 343.893,253.624 343.56,253.957 343.5,254.5C 332.409,250.481 321.409,246.315 310.5,242C 298.2,238.564 285.7,236.397 273,235.5C 269.833,235.667 266.667,235.833 263.5,236C 262.376,236.249 261.376,236.749 260.5,237.5C 241.93,282.73 239.763,328.73 254,375.5C 254.667,377.5 254.667,379.5 254,381.5C 213.559,428.161 195.893,482.494 201,544.5C 202.135,585.844 210.802,625.511 227,663.5C 233.923,677.696 242.09,691.03 251.5,703.5C 257.479,712.993 264.812,721.493 273.5,729C 278.317,733.24 283.317,737.24 288.5,741C 289.793,741.49 291.127,741.657 292.5,741.5C 316.308,757.237 341.975,768.904 369.5,776.5C 370.36,778.614 372.027,779.78 374.5,780C 380.971,781.628 387.471,783.128 394,784.5C 395.07,784.472 395.903,784.139 396.5,783.5C 412.243,785.368 427.91,787.701 443.5,790.5C 430.795,803.225 421.628,818.225 416,835.5C 413.36,844.394 411.193,853.394 409.5,862.5C 398.63,867.345 387.297,871.011 375.5,873.5C 374.726,872.853 373.726,872.52 372.5,872.5C 360.175,873.899 347.842,874.899 335.5,875.5C 329.161,873.192 322.661,871.192 316,869.5C 315.235,869.57 314.735,869.903 314.5,870.5C 293.806,863.059 276.972,850.392 264,832.5C 256.501,819.336 247.834,807.003 238,795.5C 229.424,786.815 219.924,779.482 209.5,773.5C 208.426,770.932 206.426,769.265 203.5,768.5C 202.817,768.863 202.15,769.196 201.5,769.5C 191.756,765.463 181.59,763.129 171,762.5C 165.37,762.522 159.87,763.355 154.5,765C 146.912,768.756 145.746,773.923 151,780.5C 159.65,788.82 169.15,795.986 179.5,802C 203.905,824.624 221.405,851.791 232,883.5C 235.663,889.321 239.497,894.988 243.5,900.5C 243.389,901.117 243.056,901.617 242.5,902C 249.568,909.738 257.234,916.738 265.5,923C 266.793,923.49 268.127,923.657 269.5,923.5C 282.289,931.318 295.956,936.984 310.5,940.5C 312.542,942.83 315.208,943.996 318.5,944C 343.756,947.633 368.923,947.133 394,942.5C 395.03,942.164 395.53,941.497 395.5,940.5C 399.295,939.383 403.295,938.717 407.5,938.5C 408.256,973.498 408.423,1008.5 408,1043.5C 404.611,1058.72 395.111,1065.72 379.5,1064.5C 363.676,1061.47 348.676,1056.47 334.5,1049.5C 332.932,1046.55 330.599,1045.55 327.5,1046.5C 327.167,1046.5 326.833,1046.5 326.5,1046.5C 325.313,1044.02 323.313,1043.02 320.5,1043.5C 318.847,1043.34 317.514,1042.67 316.5,1041.5C 316.586,1040.5 316.252,1039.67 315.5,1039C 305.619,1035.39 296.286,1030.73 287.5,1025C 286.207,1024.51 284.873,1024.34 283.5,1024.5C 258.327,1011.08 234.66,995.415 212.5,977.5C 211.797,975.284 210.464,973.451 208.5,972C 179.37,949.203 153.203,923.37 130,894.5C 128.871,892.859 127.371,891.859 125.5,891.5C 45.0727,789.562 5.40607,673.228 6.5,542.5C 8.42528,528.051 9.42528,513.384 9.5,498.5C 19.0316,401.206 52.365,313.206 109.5,234.5C 111.017,234.489 112.184,233.823 113,232.5C 147.566,186.267 188.4,146.434 235.5,113C 237.141,111.871 238.141,110.371 238.5,108.5C 256.829,95.3283 276.162,83.6617 296.5,73.5C 297.15,73.8039 297.817,74.1373 298.5,74.5C 305.086,71.0389 311.753,67.8722 318.5,65C 320.426,64.5776 321.426,63.4109 321.5,61.5C 334.955,54.6769 348.955,49.0102 363.5,44.5C 364.265,44.9234 365.098,45.2568 366,45.5C 372.772,43.1315 379.605,40.9649 386.5,39C 388.881,38.7767 390.547,37.61 391.5,35.5C 391.833,35.5 392.167,35.5 392.5,35.5C 392.917,36.1239 393.584,36.4573 394.5,36.5C 397.471,35.5652 400.471,34.7319 403.5,34C 404.756,33.5831 405.423,32.7498 405.5,31.5C 409.702,30.0333 414.035,29.0333 418.5,28.5C 421.782,29.366 425.115,29.1994 428.5,28C 430.713,26.3838 433.047,25.2172 435.5,24.5C 438.679,23.2066 442.012,22.5399 445.5,22.5C 451.903,23.5485 458.236,23.0485 464.5,21C 465.056,20.6174 465.389,20.1174 465.5,19.5C 466.167,19.5 466.833,19.5 467.5,19.5C 467.917,20.1239 468.584,20.4573 469.5,20.5C 471.104,20.0609 472.604,19.3943 474,18.5C 477.121,19.5359 480.287,19.7026 483.5,19C 485.744,18.9504 487.411,18.1171 488.5,16.5C 500.087,18.0168 511.42,17.3501 522.5,14.5 Z"/></g>
<g><path style="opacity:1" fill="#d4d5d5" d="M 522.5,14.5 C 511.42,17.3501 500.087,18.0168 488.5,16.5C 499.621,14.8257 510.955,14.159 522.5,14.5 Z"/></g>
<g><path style="opacity:1" fill="#cfd0d0" d="M 551.5,14.5 C 564.039,14.2011 576.372,14.8678 588.5,16.5C 580.342,17.2449 572.008,17.2449 563.5,16.5C 559.107,16.4907 555.107,15.824 551.5,14.5 Z"/></g>
<g><path style="opacity:1" fill="#d1d2d2" d="M 591.5,16.5 C 600.356,17.076 609.023,18.076 617.5,19.5C 611.181,20.4356 604.848,20.269 598.5,19C 595.896,18.6097 593.562,17.7763 591.5,16.5 Z"/></g>
<g><path style="opacity:1" fill="#d5d6d6" d="M 488.5,16.5 C 487.411,18.1171 485.744,18.9504 483.5,19C 480.287,19.7026 477.121,19.5359 474,18.5C 472.604,19.3943 471.104,20.0609 469.5,20.5C 468.584,20.4573 467.917,20.1239 467.5,19.5C 468.263,18.7321 469.263,18.2321 470.5,18C 476.477,17.1691 482.477,16.6691 488.5,16.5 Z"/></g>
<g><path style="opacity:1" fill="#d2d3d3" d="M 465.5,19.5 C 465.389,20.1174 465.056,20.6174 464.5,21C 458.236,23.0485 451.903,23.5485 445.5,22.5C 451.911,20.6557 458.578,19.6557 465.5,19.5 Z"/></g>
<g><path style="opacity:1" fill="#d2d3d3" d="M 435.5,24.5 C 433.047,25.2172 430.713,26.3838 428.5,28C 425.115,29.1994 421.782,29.366 418.5,28.5C 423.817,26.166 429.484,24.8327 435.5,24.5 Z"/></g>
<g><path style="opacity:1" fill="#d2d3d3" d="M 646.5,24.5 C 657.945,25.7787 668.945,28.4454 679.5,32.5C 675.255,33.4796 671.421,32.4796 668,29.5C 667.275,30.0585 666.442,30.3918 665.5,30.5C 660.167,29.3333 654.833,28.1667 649.5,27C 648.058,26.6232 647.058,25.7899 646.5,24.5 Z"/></g>
<g><path style="opacity:1" fill="#d0d1d1" d="M 405.5,31.5 C 405.423,32.7498 404.756,33.5831 403.5,34C 400.471,34.7319 397.471,35.5652 394.5,36.5C 393.584,36.4573 392.917,36.1239 392.5,35.5C 396.613,33.7175 400.946,32.3841 405.5,31.5 Z"/></g>
<g><path style="opacity:1" fill="#d0d1d1" d="M 391.5,35.5 C 390.547,37.61 388.881,38.7767 386.5,39C 379.605,40.9649 372.772,43.1315 366,45.5C 365.098,45.2568 364.265,44.9234 363.5,44.5C 372.508,40.7202 381.842,37.7202 391.5,35.5 Z"/></g>
<g><path style="opacity:1" fill="#cdcece" d="M 694.5,36.5 C 708.953,40.5101 722.953,45.5101 736.5,51.5C 736.265,52.0967 735.765,52.4301 735,52.5C 722.317,47.6056 709.484,43.1056 696.5,39C 695.244,38.5831 694.577,37.7498 694.5,36.5 Z"/></g>
<g><path style="opacity:1" fill="#d1d2d2" d="M 321.5,61.5 C 321.426,63.4109 320.426,64.5776 318.5,65C 311.753,67.8722 305.086,71.0389 298.5,74.5C 297.817,74.1373 297.15,73.8039 296.5,73.5C 304.399,68.7183 312.732,64.7183 321.5,61.5 Z"/></g>
<g><path style="opacity:1" fill="#cecfcf" d="M 238.5,108.5 C 238.141,110.371 237.141,111.871 235.5,113C 188.4,146.434 147.566,186.267 113,232.5C 112.184,233.823 111.017,234.489 109.5,234.5C 145.291,185.042 188.291,143.042 238.5,108.5 Z"/></g>
<g><path style="opacity:1" fill="#cecfcf" d="M 849.5,112.5 C 882.895,136.218 913.229,163.551 940.5,194.5C 939.761,194.631 939.094,194.464 938.5,194C 912.566,165.055 883.9,139.388 852.5,117C 850.859,115.871 849.859,114.371 849.5,112.5 Z"/></g>
<g><path style="opacity:1" fill="#eaeaea" d="M 790.5,237.5 C 788.485,238.924 786.152,239.59 783.5,239.5C 785.515,238.076 787.848,237.41 790.5,237.5 Z"/></g>
<g><path style="opacity:1" fill="#d3d3d3" d="M 360.5,263.5 C 354.355,261.263 348.688,258.263 343.5,254.5C 343.56,253.957 343.893,253.624 344.5,253.5C 349.5,256 354.5,258.5 359.5,261C 360.252,261.671 360.586,262.504 360.5,263.5 Z"/></g>
<g><path style="opacity:1" fill="#cfd0d0" d="M 586.5,276.5 C 556.154,273.883 525.821,273.883 495.5,276.5C 495.611,275.883 495.944,275.383 496.5,275C 523.798,272.141 551.131,271.808 578.5,274C 581.522,274.098 584.189,274.932 586.5,276.5 Z"/></g>
<g><path style="opacity:1" fill="#d0d1d1" d="M 474.5,278.5 C 468.531,279.686 462.531,280.686 456.5,281.5C 456.791,280.351 457.624,279.684 459,279.5C 464.282,277.961 469.448,277.628 474.5,278.5 Z"/></g>
<g><path style="opacity:1" fill="#d2d3d3" d="M 633.5,282.5 C 640.147,281.559 646.481,282.892 652.5,286.5C 654.297,285.068 655.63,285.401 656.5,287.5C 648.859,285.971 641.193,284.304 633.5,282.5 Z"/></g>
<g><path style="opacity:1" fill="#cecfcf" d="M 9.5,498.5 C 9.42528,513.384 8.42528,528.051 6.5,542.5C 6.59661,527.619 7.59661,512.952 9.5,498.5 Z"/></g>
<g><path style="opacity:1" fill="#cfd0d0" d="M 833.5,700.5 C 832.316,703.861 830.483,706.861 828,709.5C 819.637,718.197 810.97,726.531 802,734.5C 801.617,733.944 801.117,733.611 800.5,733.5C 812.5,723.5 823.5,712.5 833.5,700.5 Z"/></g>
<g><path style="opacity:1" fill="#cfd0d0" d="M 251.5,703.5 C 258.3,710.47 264.967,717.636 271.5,725C 278.4,730.745 285.4,736.245 292.5,741.5C 291.127,741.657 289.793,741.49 288.5,741C 283.317,737.24 278.317,733.24 273.5,729C 264.812,721.493 257.479,712.993 251.5,703.5 Z"/></g>
<g><path style="opacity:1" fill="#d4d5d5" d="M 209.5,773.5 C 206.515,772.674 203.849,771.341 201.5,769.5C 202.15,769.196 202.817,768.863 203.5,768.5C 206.426,769.265 208.426,770.932 209.5,773.5 Z"/></g>
<g><path style="opacity:1" fill="#d0d1d1" d="M 369.5,776.5 C 378.655,778.302 387.655,780.635 396.5,783.5C 395.903,784.139 395.07,784.472 394,784.5C 387.471,783.128 380.971,781.628 374.5,780C 372.027,779.78 370.36,778.614 369.5,776.5 Z"/></g>
<g><path style="opacity:1" fill="#d2d3d3" d="M 715.5,775.5 C 715.047,776.458 714.381,777.292 713.5,778C 711.122,778.511 708.788,779.178 706.5,780C 701.766,781.307 697.099,781.807 692.5,781.5C 699.86,778.742 707.527,776.742 715.5,775.5 Z"/></g>
<g><path style="opacity:1" fill="#d6d7d7" d="M 691.5,781.5 C 689.444,782.199 687.444,783.199 685.5,784.5C 683.273,783.947 680.939,783.947 678.5,784.5C 682.515,782.627 686.849,781.627 691.5,781.5 Z"/></g>
<g><path style="opacity:1" fill="#d8d9d9" d="M 665.5,786.5 C 664.287,788.676 662.62,789.009 660.5,787.5C 657.37,789.686 654.037,790.019 650.5,788.5C 655.269,787.111 660.269,786.444 665.5,786.5 Z"/></g>
<g><path style="opacity:1" fill="#d1d2d2" d="M 650.5,788.5 C 650.38,789.586 649.713,790.253 648.5,790.5C 646.5,791 644.5,791.5 642.5,792C 645.381,794.279 647.381,797.112 648.5,800.5C 645.165,797.157 641.831,793.824 638.5,790.5C 642.32,788.855 646.32,788.189 650.5,788.5 Z"/></g>
<g><path style="opacity:1" fill="#d0d1d1" d="M 314.5,870.5 C 314.735,869.903 315.235,869.57 316,869.5C 322.661,871.192 329.161,873.192 335.5,875.5C 347.842,874.899 360.175,873.899 372.5,872.5C 373.726,872.52 374.726,872.853 375.5,873.5C 372.273,873.676 369.273,874.343 366.5,875.5C 355.177,876.388 343.844,876.555 332.5,876C 326.327,874.461 320.327,872.628 314.5,870.5 Z"/></g>
<g><path style="opacity:1" fill="#e7e8e8" d="M 375.5,873.5 C 372.829,875.118 369.829,875.785 366.5,875.5C 369.273,874.343 372.273,873.676 375.5,873.5 Z"/></g>
<g><path style="opacity:1" fill="#cecfcf" d="M 243.5,900.5 C 251.25,909.253 259.917,916.92 269.5,923.5C 268.127,923.657 266.793,923.49 265.5,923C 257.234,916.738 249.568,909.738 242.5,902C 243.056,901.617 243.389,901.117 243.5,900.5 Z"/></g>
<g><path style="opacity:1" fill="#cecfcf" d="M 310.5,940.5 C 311.5,940.5 312.5,940.5 313.5,940.5C 316.123,942.265 319.123,942.932 322.5,942.5C 339.445,944.755 356.445,945.089 373.5,943.5C 379.198,943.404 384.865,942.904 390.5,942C 391.416,941.722 392.082,941.222 392.5,940.5C 393.5,940.5 394.5,940.5 395.5,940.5C 395.53,941.497 395.03,942.164 394,942.5C 368.923,947.133 343.756,947.633 318.5,944C 315.208,943.996 312.542,942.83 310.5,940.5 Z"/></g>
<g><path style="opacity:1" fill="#dfe0e0" d="M 392.5,940.5 C 392.082,941.222 391.416,941.722 390.5,942C 384.865,942.904 379.198,943.404 373.5,943.5C 379.659,942.237 385.992,941.237 392.5,940.5 Z"/></g>
<g><path style="opacity:1" fill="#e1e2e2" d="M 313.5,940.5 C 316.689,940.858 319.689,941.525 322.5,942.5C 319.123,942.932 316.123,942.265 313.5,940.5 Z"/></g>
<g><path style="opacity:1" fill="#cfd0d0" d="M 125.5,891.5 C 127.371,891.859 128.871,892.859 130,894.5C 153.203,923.37 179.37,949.203 208.5,972C 210.464,973.451 211.797,975.284 212.5,977.5C 180.203,952.204 151.203,923.537 125.5,891.5 Z"/></g>
<g><path style="opacity:1" fill="#cecfcf" d="M 910.5,941.5 C 891.653,960.353 871.32,977.353 849.5,992.5C 849.859,990.629 850.859,989.129 852.5,988C 872.128,974.333 890.461,959 907.5,942C 908.448,941.517 909.448,941.351 910.5,941.5 Z"/></g>
<g><path style="opacity:1" fill="#d2d3d3" d="M 283.5,1024.5 C 284.873,1024.34 286.207,1024.51 287.5,1025C 296.286,1030.73 305.619,1035.39 315.5,1039C 316.252,1039.67 316.586,1040.5 316.5,1041.5C 305.022,1036.6 294.022,1030.93 283.5,1024.5 Z"/></g>
<g><path style="opacity:1" fill="#dbdcdc" d="M 320.5,1043.5 C 323.313,1043.02 325.313,1044.02 326.5,1046.5C 324.456,1045.49 322.456,1044.49 320.5,1043.5 Z"/></g>
<g><path style="opacity:1" fill="#d6d7d7" d="M 334.5,1049.5 C 331.759,1049.29 329.426,1048.29 327.5,1046.5C 330.599,1045.55 332.932,1046.55 334.5,1049.5 Z"/></g>
</svg>
